REM DIRINDEX 1\2,1\3,1\4,1\5\6,1\5\7,1\8
REM DIRNAME folder01,folder02,folder03,folder04,folder05,folder06,folder07,folder08
TITLE ""
FILE "059 【059】Unit4 (0661 admittedly_0672 evaporate).mp3" MP3
  TRACK 01 AUDIO
    TITLE "0:"
    INDEX 01 00:00:00
  TRACK 02 AUDIO
    TITLE "2:cjc115_2326"
    INDEX 01 00:00:07
  TRACK 03 AUDIO
    TITLE "0:"
    INDEX 01 00:01:30
  TRACK 04 AUDIO
    TITLE "3:cjc115_2327"
    INDEX 01 00:01:38
  TRACK 05 AUDIO
    TITLE "0:"
    INDEX 01 00:04:38
  TRACK 06 AUDIO
    TITLE "4:cjc115_2328"
    INDEX 01 00:04:40
  TRACK 07 AUDIO
    TITLE "0:"
    INDEX 01 00:09:14
  TRACK 08 AUDIO
    TITLE "2:cjc115_2329"
    INDEX 01 00:10:23
  TRACK 09 AUDIO
    TITLE "0:"
    INDEX 01 00:11:39
  TRACK 10 AUDIO
    TITLE "3:cjc115_2330"
    INDEX 01 00:11:48
  TRACK 11 AUDIO
    TITLE "0:"
    INDEX 01 00:13:61
  TRACK 12 AUDIO
    TITLE "4:cjc115_2331"
    INDEX 01 00:13:69
  TRACK 13 AUDIO
    TITLE "0:"
    INDEX 01 00:17:27
  TRACK 14 AUDIO
    TITLE "2:cjc115_2332"
    INDEX 01 00:18:31
  TRACK 15 AUDIO
    TITLE "0:"
    INDEX 01 00:19:48
  TRACK 16 AUDIO
    TITLE "3:cjc115_2333"
    INDEX 01 00:19:54
  TRACK 17 AUDIO
    TITLE "0:"
    INDEX 01 00:22:27
  TRACK 18 AUDIO
    TITLE "4:cjc115_2334"
    INDEX 01 00:22:38
  TRACK 19 AUDIO
    TITLE "0:"
    INDEX 01 00:26:26
  TRACK 20 AUDIO
    TITLE "2:cjc115_2335"
    INDEX 01 00:27:30
  TRACK 21 AUDIO
    TITLE "0:"
    INDEX 01 00:28:39
  TRACK 22 AUDIO
    TITLE "3:cjc115_2336"
    INDEX 01 00:28:47
  TRACK 23 AUDIO
    TITLE "0:"
    INDEX 01 00:30:55
  TRACK 24 AUDIO
    TITLE "4:cjc115_2337"
    INDEX 01 00:30:63
  TRACK 25 AUDIO
    TITLE "0:"
    INDEX 01 00:35:59
  TRACK 26 AUDIO
    TITLE "2:cjc115_2338"
    INDEX 01 00:36:68
  TRACK 27 AUDIO
    TITLE "0:"
    INDEX 01 00:38:08
  TRACK 28 AUDIO
    TITLE "3:cjc115_2339"
    INDEX 01 00:38:18
  TRACK 29 AUDIO
    TITLE "0:"
    INDEX 01 00:40:40
  TRACK 30 AUDIO
    TITLE "4:cjc115_2340"
    INDEX 01 00:40:44
  TRACK 31 AUDIO
    TITLE "0:"
    INDEX 01 00:44:56
  TRACK 32 AUDIO
    TITLE "2:cjc115_2341"
    INDEX 01 00:45:63
  TRACK 33 AUDIO
    TITLE "0:"
    INDEX 01 00:47:23
  TRACK 34 AUDIO
    TITLE "3:cjc115_2342"
    INDEX 01 00:47:36
  TRACK 35 AUDIO
    TITLE "0:"
    INDEX 01 00:50:37
  TRACK 36 AUDIO
    TITLE "4:cjc115_2343"
    INDEX 01 00:50:44
  TRACK 37 AUDIO
    TITLE "0:"
    INDEX 01 00:54:09
  TRACK 38 AUDIO
    TITLE "2:cjc115_2344"
    INDEX 01 00:55:14
  TRACK 39 AUDIO
    TITLE "0:"
    INDEX 01 00:56:65
  TRACK 40 AUDIO
    TITLE "3:cjc115_2345"
    INDEX 01 00:56:72
  TRACK 41 AUDIO
    TITLE "0:"
    INDEX 01 00:58:42
  TRACK 42 AUDIO
    TITLE "4:cjc115_2346"
    INDEX 01 00:58:52
  TRACK 43 AUDIO
    TITLE "0:"
    INDEX 01 01:02:36
  TRACK 44 AUDIO
    TITLE "2:cjc115_2347"
    INDEX 01 01:03:43
  TRACK 45 AUDIO
    TITLE "0:"
    INDEX 01 01:04:50
  TRACK 46 AUDIO
    TITLE "3:cjc115_2348"
    INDEX 01 01:04:54
  TRACK 47 AUDIO
    TITLE "0:"
    INDEX 01 01:06:20
  TRACK 48 AUDIO
    TITLE "4:cjc115_2349"
    INDEX 01 01:06:28
  TRACK 49 AUDIO
    TITLE "0:"
    INDEX 01 01:10:04
  TRACK 50 AUDIO
    TITLE "2:cjc115_2350"
    INDEX 01 01:11:09
  TRACK 51 AUDIO
    TITLE "0:"
    INDEX 01 01:12:30
  TRACK 52 AUDIO
    TITLE "3:cjc115_2351"
    INDEX 01 01:12:40
  TRACK 53 AUDIO
    TITLE "0:"
    INDEX 01 01:14:31
  TRACK 54 AUDIO
    TITLE "4:cjc115_2352"
    INDEX 01 01:14:37
  TRACK 55 AUDIO
    TITLE "0:"
    INDEX 01 01:18:33
  TRACK 56 AUDIO
    TITLE "2:cjc115_2353"
    INDEX 01 01:19:40
  TRACK 57 AUDIO
    TITLE "0:"
    INDEX 01 01:20:65
  TRACK 58 AUDIO
    TITLE "3:cjc115_2354"
    INDEX 01 01:20:73
  TRACK 59 AUDIO
    TITLE "0:"
    INDEX 01 01:22:01
  TRACK 60 AUDIO
    TITLE "4:cjc115_2355"
    INDEX 01 01:22:03
  TRACK 61 AUDIO
    TITLE "0:"
    INDEX 01 01:24:45
  TRACK 62 AUDIO
    TITLE "2:cjc115_2356"
    INDEX 01 01:25:58
  TRACK 63 AUDIO
    TITLE "0:"
    INDEX 01 01:27:03
  TRACK 64 AUDIO
    TITLE "3:cjc115_2357"
    INDEX 01 01:27:10
  TRACK 65 AUDIO
    TITLE "0:"
    INDEX 01 01:28:53
  TRACK 66 AUDIO
    TITLE "4:cjc115_2358"
    INDEX 01 01:28:63
  TRACK 67 AUDIO
    TITLE "0:"
    INDEX 01 01:33:05
  TRACK 68 AUDIO
    TITLE "2:cjc115_2359"
    INDEX 01 01:34:12
  TRACK 69 AUDIO
    TITLE "0:"
    INDEX 01 01:35:37
  TRACK 70 AUDIO
    TITLE "3:cjc115_2360"
    INDEX 01 01:35:47
  TRACK 71 AUDIO
    TITLE "0:"
    INDEX 01 01:37:38
  TRACK 72 AUDIO
    TITLE "4:cjc115_2361"
    INDEX 01 01:37:48
  TRACK 73 AUDIO
    TITLE "0:"
    INDEX 01 01:43:52
